# xmcd
#
# Track frame offsets: 
#        150
#        23422
#        41812
#        61645
#        82812
#        108917
#        130217
#        156352
#        172847
#        196232
#        212530
#        225012
#        243430
#
# Disc length: 3507 seconds
#
# Revision: 1
# Processed by: cddbd v1.5.2PL0 Copyright (c) Steve Scherf et al.
# Submitted via: ExactAudioCopyFreeDBPlugin 1.0
#
DISCID=8e0db10d
DTITLE=Doug MacLeod - Ain't The Blues Evil
DYEAR=1991
DGENRE=Blues
TTITLE0=Don't Point Your Finger
TTITLE1=Ain't The Blues Evil
TTITLE2=Placquemine
TTITLE3=Lone Wolf
TTITLE4=Love's A Hurtin' Thing
TTITLE5=Just Like A Minstrel
TTITLE6=One Fool Lookin' For Another
TTITLE7=High Priced Woman
TTITLE8=Too Little Too Late
TTITLE9=(I Think You're) Steppin' Out On Me
TTITLE10=Somewhere, Somehow, Someway
TTITLE11=SRV (For Stevie Ray)
TTITLE12=Cold Rain
EXTD=
EXTT0=
EXTT1=
EXTT2=
EXTT3=
EXTT4=
EXTT5=
EXTT6=
EXTT7=
EXTT8=
EXTT9=
EXTT10=
EXTT11=
EXTT12=
PLAYORDER=
